; NON-PLATED HOLES START AT T1
; THROUGH (PLATED) HOLES START AT T100
M48
INCH
T1C0.165354
T2C0.125984
T100C0.035000
T101C0.043307
%
T1
X010602Y014380
X004602Y014380
T2
X001602Y045880
X030102Y045880
X001602Y001880
X030102Y001880
T100
X010602Y033880
X010602Y038880
X020602Y022880
X016602Y030380
X004602Y042880
X020602Y040380
X020602Y027880
X004602Y034880
X016602Y035380
X010602Y031880
X004602Y039880
X010602Y036880
X004602Y040880
X016602Y020380
X004602Y032880
X020602Y030380
X010602Y042880
X016602Y042880
X016602Y025380
X004602Y037880
X010602Y034880
X020602Y035380
X010602Y039880
X010602Y040880
X004602Y035880
X020602Y020380
X010602Y032880
X016602Y032880
X020602Y042880
X020602Y025380
X010602Y037880
X016602Y037880
X004602Y041880
X004602Y033880
X004602Y038880
X016602Y022880
X010602Y035880
X020602Y032880
X016602Y040380
X016602Y027880
X004602Y031880
X020602Y037880
X010602Y041880
X004602Y036880
T101
X026102Y030880
X026102Y016880
X026102Y020880
X026102Y038880
X026102Y006880
X026102Y042880
X026102Y010880
X026102Y028880
X026102Y032880
X026102Y018880
X026102Y022880
X026102Y008880
X026102Y012880
X026102Y034880
X026102Y024880
X026102Y014880
X026102Y036880
X026102Y004880
X026102Y040880
X026102Y026880
T00
M30
