G04 MADE WITH FRITZING*
G04 WWW.FRITZING.ORG*
G04 DOUBLE SIDED*
G04 HOLES PLATED*
G04 CONTOUR ON CENTER OF CONTOUR VECTOR*
%ASAXBY*%
%FSLAX23Y23*%
%MOIN*%
%OFA0B0*%
%SFA1.0B1.0*%
%ADD10C,0.075000*%
%ADD11C,0.083307*%
%ADD12R,0.075000X0.075000*%
%ADD13R,0.083307X0.083307*%
%ADD14C,0.024000*%
%LNCOPPER0*%
G90*
G70*
G54D10*
X460Y4288D03*
X1060Y4288D03*
X460Y4188D03*
X1060Y4188D03*
X460Y4088D03*
X1060Y4088D03*
X460Y3988D03*
X1060Y3988D03*
X460Y3888D03*
X1060Y3888D03*
X460Y3788D03*
X1060Y3788D03*
X460Y3688D03*
X1060Y3688D03*
X460Y3588D03*
X1060Y3588D03*
X460Y3488D03*
X1060Y3488D03*
X460Y3388D03*
X1060Y3388D03*
X460Y3288D03*
X1060Y3288D03*
X460Y3188D03*
X1060Y3188D03*
X1660Y2038D03*
X2060Y2038D03*
X1660Y2288D03*
X2060Y2288D03*
X1660Y2538D03*
X2060Y2538D03*
X1660Y2788D03*
X2060Y2788D03*
X1660Y3038D03*
X2060Y3038D03*
X1660Y3288D03*
X2060Y3288D03*
X1660Y3538D03*
X2060Y3538D03*
X1660Y3788D03*
X2060Y3788D03*
X1660Y4038D03*
X2060Y4038D03*
X1660Y4288D03*
X2060Y4288D03*
G54D11*
X2610Y4288D03*
X2610Y4088D03*
X2610Y3888D03*
X2610Y3688D03*
X2610Y3488D03*
X2610Y3288D03*
X2610Y3088D03*
X2610Y2888D03*
X2610Y2688D03*
X2610Y2488D03*
X2610Y2288D03*
X2610Y2088D03*
X2610Y1888D03*
X2610Y1688D03*
X2610Y1488D03*
X2610Y1288D03*
X2610Y1088D03*
X2610Y888D03*
X2610Y688D03*
X2610Y488D03*
G54D12*
X460Y4288D03*
G54D13*
X2610Y4288D03*
G54D14*
X2060Y4067D02*
X2060Y4259D01*
D02*
X2060Y3817D02*
X2060Y4009D01*
D02*
X2060Y3567D02*
X2060Y3759D01*
D02*
X2060Y3317D02*
X2060Y3509D01*
D02*
X2060Y3067D02*
X2060Y3259D01*
D02*
X2060Y2817D02*
X2060Y3009D01*
D02*
X2060Y2567D02*
X2060Y2759D01*
D02*
X2060Y2317D02*
X2060Y2509D01*
D02*
X2060Y2067D02*
X2060Y2259D01*
D02*
X2060Y1888D02*
X2060Y2009D01*
D02*
X1512Y1888D02*
X2060Y1888D01*
D02*
X1512Y2188D02*
X1512Y1888D01*
D02*
X1460Y2188D02*
X1512Y2188D01*
D02*
X1460Y2340D02*
X1460Y2188D01*
D02*
X1412Y2336D02*
X1460Y2340D01*
D02*
X1412Y2588D02*
X1412Y2336D01*
D02*
X1360Y2588D02*
X1412Y2588D01*
D02*
X1360Y2940D02*
X1360Y2588D01*
D02*
X1260Y2936D02*
X1360Y2940D01*
D02*
X1260Y3088D02*
X1260Y2936D01*
D02*
X960Y3088D02*
X1260Y3088D01*
D02*
X960Y3288D02*
X960Y3088D01*
D02*
X489Y3288D02*
X960Y3288D01*
D02*
X1512Y2388D02*
X1460Y2388D01*
D02*
X1460Y2388D02*
X1460Y2640D01*
D02*
X1508Y2236D02*
X1512Y2388D01*
D02*
X1460Y2640D02*
X1412Y2636D01*
D02*
X1560Y2236D02*
X1508Y2236D01*
D02*
X1412Y2636D02*
X1408Y2988D01*
D02*
X1560Y2040D02*
X1560Y2236D01*
D02*
X1408Y2988D02*
X1312Y2988D01*
D02*
X1632Y2039D02*
X1560Y2040D01*
D02*
X1312Y2988D02*
X1312Y3240D01*
D02*
X1312Y3240D02*
X1260Y3240D01*
D02*
X1260Y3240D02*
X1260Y3436D01*
D02*
X1260Y3436D02*
X1212Y3440D01*
D02*
X1212Y3440D02*
X1208Y3588D01*
D02*
X1208Y3588D02*
X1089Y3588D01*
D02*
X1089Y3688D02*
X1260Y3688D01*
D02*
X1260Y3688D02*
X1260Y3488D01*
D02*
X1260Y3488D02*
X1312Y3488D01*
D02*
X1312Y3488D02*
X1312Y3288D01*
D02*
X1312Y3288D02*
X1360Y3288D01*
D02*
X1360Y3288D02*
X1360Y3036D01*
D02*
X1360Y3036D02*
X1460Y3040D01*
D02*
X1460Y3040D02*
X1460Y2688D01*
D02*
X1460Y2688D02*
X1512Y2688D01*
D02*
X1512Y2688D02*
X1508Y2440D01*
D02*
X1508Y2440D02*
X1560Y2440D01*
D02*
X1560Y2440D02*
X1560Y2288D01*
D02*
X1560Y2288D02*
X1632Y2288D01*
D02*
X1089Y3788D02*
X1259Y3788D01*
D02*
X1259Y3788D02*
X1260Y3736D01*
D02*
X1260Y3736D02*
X1308Y3740D01*
D02*
X1308Y3740D02*
X1312Y3536D01*
D02*
X1312Y3536D02*
X1360Y3536D01*
D02*
X1360Y3536D02*
X1360Y3340D01*
D02*
X1360Y3340D02*
X1412Y3336D01*
D02*
X1412Y3336D02*
X1412Y3088D01*
D02*
X1412Y3088D02*
X1512Y3088D01*
D02*
X1512Y3088D02*
X1508Y2736D01*
D02*
X1508Y2736D02*
X1560Y2736D01*
D02*
X1560Y2736D02*
X1560Y2536D01*
D02*
X1560Y2536D02*
X1632Y2537D01*
D02*
X1089Y3888D02*
X1311Y3887D01*
D02*
X1311Y3887D02*
X1312Y3788D01*
D02*
X1312Y3788D02*
X1360Y3788D01*
D02*
X1360Y3788D02*
X1360Y3588D01*
D02*
X1360Y3588D02*
X1412Y3588D01*
D02*
X1412Y3588D02*
X1412Y3388D01*
D02*
X1412Y3388D02*
X1460Y3388D01*
D02*
X1460Y3388D02*
X1460Y3136D01*
D02*
X1460Y3136D02*
X1560Y3140D01*
D02*
X1560Y3140D02*
X1560Y2788D01*
D02*
X1560Y2788D02*
X1632Y2788D01*
D02*
X1089Y3988D02*
X1362Y3986D01*
D02*
X1362Y3986D02*
X1360Y3836D01*
D02*
X1360Y3836D02*
X1408Y3840D01*
D02*
X1408Y3840D02*
X1408Y3636D01*
D02*
X1408Y3636D02*
X1460Y3640D01*
D02*
X1460Y3640D02*
X1460Y3436D01*
D02*
X1460Y3436D02*
X1508Y3436D01*
D02*
X1508Y3436D02*
X1512Y3188D01*
D02*
X1512Y3188D02*
X1612Y3188D01*
D02*
X1612Y3188D02*
X1612Y3036D01*
D02*
X1612Y3036D02*
X1632Y3037D01*
D02*
X1089Y4088D02*
X1410Y4089D01*
D02*
X1410Y4089D02*
X1408Y3888D01*
D02*
X1408Y3888D02*
X1460Y3888D01*
D02*
X1460Y3888D02*
X1460Y3688D01*
D02*
X1460Y3688D02*
X1512Y3688D01*
D02*
X1512Y3688D02*
X1512Y3488D01*
D02*
X1512Y3488D02*
X1560Y3488D01*
D02*
X1560Y3488D02*
X1560Y3288D01*
D02*
X1560Y3288D02*
X1632Y3288D01*
D02*
X1089Y4188D02*
X1461Y4188D01*
D02*
X1461Y4188D02*
X1460Y3936D01*
D02*
X1460Y3936D02*
X1512Y3936D01*
D02*
X1512Y3936D02*
X1508Y3740D01*
D02*
X1508Y3740D02*
X1560Y3736D01*
D02*
X1560Y3736D02*
X1560Y3536D01*
D02*
X1560Y3536D02*
X1632Y3537D01*
D02*
X1509Y4287D02*
X1089Y4288D01*
D02*
X1508Y3988D02*
X1509Y4287D01*
D02*
X1560Y3988D02*
X1508Y3988D01*
D02*
X1560Y3788D02*
X1560Y3988D01*
D02*
X1632Y3788D02*
X1560Y3788D01*
D02*
X459Y4386D02*
X1560Y4386D01*
D02*
X1560Y4386D02*
X1560Y4038D01*
D02*
X460Y4317D02*
X459Y4386D01*
D02*
X1560Y4038D02*
X1632Y4038D01*
D02*
X309Y4438D02*
X1659Y4436D01*
D02*
X1659Y4436D02*
X1660Y4317D01*
D02*
X309Y4188D02*
X309Y4438D01*
D02*
X1659Y4436D02*
X2610Y4438D01*
D02*
X432Y4188D02*
X309Y4188D01*
D02*
X2610Y4438D02*
X2610Y4321D01*
D02*
X2760Y4488D02*
X260Y4488D01*
D02*
X260Y4488D02*
X260Y3488D01*
D02*
X2760Y4089D02*
X2760Y4488D01*
D02*
X260Y3488D02*
X432Y3488D01*
D02*
X2760Y3687D02*
X2760Y4089D01*
D02*
X2760Y4089D02*
X2643Y4088D01*
D02*
X2760Y3287D02*
X2760Y3687D01*
D02*
X2760Y3687D02*
X2643Y3688D01*
D02*
X2760Y2887D02*
X2760Y3287D01*
D02*
X2760Y3287D02*
X2643Y3288D01*
D02*
X2760Y2487D02*
X2760Y2887D01*
D02*
X2760Y2887D02*
X2643Y2888D01*
D02*
X2760Y2087D02*
X2760Y2487D01*
D02*
X2760Y2487D02*
X2643Y2488D01*
D02*
X2760Y1687D02*
X2760Y2087D01*
D02*
X2760Y2087D02*
X2643Y2088D01*
D02*
X2760Y1289D02*
X2760Y1687D01*
D02*
X2760Y1687D02*
X2643Y1688D01*
D02*
X2760Y887D02*
X2760Y1289D01*
D02*
X2760Y1289D02*
X2643Y1288D01*
D02*
X2760Y489D02*
X2760Y887D01*
D02*
X2760Y887D02*
X2643Y888D01*
D02*
X2643Y488D02*
X2760Y489D01*
G04 End of Copper0*
M02*