G04 MADE WITH FRITZING*
G04 WWW.FRITZING.ORG*
G04 DOUBLE SIDED*
G04 HOLES PLATED*
G04 CONTOUR ON CENTER OF CONTOUR VECTOR*
%ASAXBY*%
%FSLAX23Y23*%
%MOIN*%
%OFA0B0*%
%SFA1.0B1.0*%
%ADD10C,0.085000*%
%ADD11C,0.135984*%
%ADD12C,0.175354*%
%ADD13C,0.093307*%
%ADD14R,0.093307X0.093307*%
%ADD15R,0.085000X0.085000*%
%LNMASK1*%
G90*
G70*
G54D10*
X1660Y2038D03*
X2060Y2038D03*
X1660Y2288D03*
X2060Y2288D03*
X1660Y2538D03*
X2060Y2538D03*
X1660Y2788D03*
X2060Y2788D03*
X1660Y3038D03*
X2060Y3038D03*
X1660Y3288D03*
X2060Y3288D03*
X1660Y3538D03*
X2060Y3538D03*
X1660Y3788D03*
X2060Y3788D03*
X1660Y4038D03*
X2060Y4038D03*
X1660Y4288D03*
X2060Y4288D03*
G54D11*
X3010Y4588D03*
X160Y4588D03*
X3010Y188D03*
X160Y188D03*
G54D12*
X1060Y1438D03*
X460Y1438D03*
G54D13*
X2610Y4288D03*
X2610Y4088D03*
X2610Y3888D03*
X2610Y3688D03*
X2610Y3488D03*
X2610Y3288D03*
X2610Y3088D03*
X2610Y2888D03*
X2610Y2688D03*
X2610Y2488D03*
X2610Y2288D03*
X2610Y2088D03*
X2610Y1888D03*
X2610Y1688D03*
X2610Y1488D03*
X2610Y1288D03*
X2610Y1088D03*
X2610Y888D03*
X2610Y688D03*
X2610Y488D03*
G54D10*
X460Y4288D03*
X1060Y4288D03*
X460Y4188D03*
X1060Y4188D03*
X460Y4088D03*
X1060Y4088D03*
X460Y3988D03*
X1060Y3988D03*
X460Y3888D03*
X1060Y3888D03*
X460Y3788D03*
X1060Y3788D03*
X460Y3688D03*
X1060Y3688D03*
X460Y3588D03*
X1060Y3588D03*
X460Y3488D03*
X1060Y3488D03*
X460Y3388D03*
X1060Y3388D03*
X460Y3288D03*
X1060Y3288D03*
X460Y3188D03*
X1060Y3188D03*
G54D14*
X2610Y4288D03*
G54D15*
X460Y4288D03*
G04 End of Mask1*
M02*